<svg xmlns="http://www.w3.org/2000/svg" width="90" height="45" viewBox="0 0 90 45">
    <defs>
        <style>
            .a {
            fill: #cff3ff;
            stroke: #b7e5ea;
            stroke-width: 2px;
            }

            .a, .h, .j, .n {
            stroke-miterlimit: 10;
            }

            .b {
            fill: #cceaff;
            }

            .c {
            fill: #9b3807;
            }

            .d {
            fill: #fefefb;
            }

            .e, .j {
            fill: #50e0ef;
            }

            .f {
            fill: #dd8543;
            }

            .g {
            fill: #01a3cd;
            }

            .h, .n {
            fill: none;
            stroke: #000;
            }

            .h {
            stroke-width: 0.75px;
            }

            .i {
            fill: #c4c9d3;
            }

            .j {
            stroke: #fb6e41;
            }

            .j, .n {
            stroke-width: 0.5px;
            }

            .k {
            fill: #007eaa;
            }

            .l {
            fill: #005e82;
            }

            .m {
            fill: #2d7a91;
            }
        </style>
    </defs>
    <g>
        <path class="a"
              d="M82.5,23.09a19.31,19.31,0,0,0-.84-5C78.23,7,65.81,5.51,64.69,5.4H12.36A6.12,6.12,0,0,0,8.63,8.56a10.15,10.15,0,0,0-1.08,5.68V31.55a10.13,10.13,0,0,0,1.08,5.68,6.15,6.15,0,0,0,3.73,3.17H64.69c1.12-.12,13.54-1.64,17-12.65a19.47,19.47,0,0,0,.84-5.05"/>
        <line class="b" x1="69.54" y1="10.3" x2="70.28" y2="7.92"/>
        <path class="c"
              d="M40.53,38.28c-3.22.51-6.59.92-10.12,1.2a128.76,128.76,0,0,1-18.67.15,5.34,5.34,0,0,1-1.91-1.39s-.22-.42-.47-.94h0a14.71,14.71,0,0,1-.82-1.5,6.78,6.78,0,0,1-.49-2.65c-.11-3.41-.17-5.11-.13-7.59,0-2.87,0-12.9.12-13.66a8.89,8.89,0,0,1,.24-1h0A24.63,24.63,0,0,1,9.36,8.35a8.66,8.66,0,0,1,.47-.94A3.37,3.37,0,0,1,12.1,6c4.59-.26,8.5-.25,11.55-.16,1.78,0,3.44.16,6.76.37,6.29.4,9.45.64,10.18,1.14,5.9,4.07,7.9,21,2.47,28.5A10.39,10.39,0,0,1,40.53,38.28Z"/>
        <path class="d"
              d="M79.59,22.9a41.16,41.16,0,0,0-3.8-5.53,41.72,41.72,0,0,0-6.3-6.21l-21-2.92L18.16,9.67a4,4,0,0,0-1.82,1.74,6,6,0,0,0-.72,3V31.58a6,6,0,0,0,.72,3,4,4,0,0,0,1.82,1.74l30.29,1.43L69.76,35A29.4,29.4,0,0,0,79.59,22.9Z"/>
        <path class="e"
              d="M27.73,10.46V34.81l24.08,1.8a80,80,0,0,0,.94-9.39c.08-1.78.09-3.47.07-5.06s0-3.56-.18-5.54a72,72,0,0,0-.93-7.5Z"/>
        <polygon class="f" points="30.52 11.82 44.38 11.11 44.38 34.52 30.52 33.96 30.52 11.82"/>
        <path class="e"
              d="M25.13,10.85V34.49l-6.36-.71a2.41,2.41,0,0,1-.91-.79,4.34,4.34,0,0,1-.67-2.21c-.12-1.65-.16-8.23,0-17.17a3,3,0,0,1,1.18-2,1.47,1.47,0,0,1,1-.15Z"/>
        <path class="g"
              d="M48.7,39.44a26.26,26.26,0,0,0,2.06-6.25,43,43,0,0,0,.6-7.35c0-1.32,0-2.41,0-3.17v.12c0-.76,0-1.85,0-3.16a42.94,42.94,0,0,0-.6-7.35A26.26,26.26,0,0,0,48.7,6H47a35.69,35.69,0,0,1,2.36,8.62,50.51,50.51,0,0,1,.37,8.3,49.1,49.1,0,0,1-.37,6.71A34.77,34.77,0,0,1,47,38.28l-.24,1.16Z"/>
        <path class="h"
              d="M54.75,39.71a72.37,72.37,0,0,0,7.76-.08,24.53,24.53,0,0,0,6.3-.87,20.34,20.34,0,0,0,6.36-3.35A16,16,0,0,0,80,30.11,18.84,18.84,0,0,0,82.14,23v-.36A18.85,18.85,0,0,0,80,15.52a16,16,0,0,0-4.85-5.3A20.08,20.08,0,0,0,68.81,6.9c-.52-.16-1.93-.56-6.48-.79-1.92-.1-4.54-.17-7.7-.08"/>
        <line class="h" x1="63.17" y1="9.68" x2="64.43" y2="6.26"/>
        <line class="h" x1="75.78" y1="10.85" x2="73.3" y2="13.73"/>
        <line class="h" x1="79.59" y1="14.41" x2="75.78" y2="16.68"/>
        <line class="h" x1="81.47" y1="19.09" x2="78.26" y2="20.43"/>
        <line class="h" x1="81.64" y1="25.41" x2="78.56" y2="25.03"/>
        <line class="h" x1="79.66" y1="30.73" x2="75.78" y2="28.09"/>
        <path class="h" d="M75.78,34.81,73.9,31.25"/>
        <path class="i"
              d="M13,5.73A61.55,61.55,0,0,0,10.65,23,61.64,61.64,0,0,0,13.13,40h2.79a63.77,63.77,0,0,1-2.48-19.62,63.44,63.44,0,0,1,2.1-14.61Z"/>
        <path class="e"
              d="M57.16,9.07l3.61,13.67L57,36.93a60.3,60.3,0,0,0,9-.9c1.48-.26,2.89-.57,4.21-.9a43.87,43.87,0,0,0,4-4,43.52,43.52,0,0,0,5.8-8.26,65.22,65.22,0,0,0-6.49-8.81c-1.2-1.38-2.41-2.64-3.59-3.78Z"/>
        <polygon class="j"
                 points="57.38 10.85 70.32 12.28 78.26 22.67 69.84 33.39 57.34 34.81 60.33 22.74 57.38 10.85"/>
        <path class="k"
              d="M51.71,9.12c.73,6.4,1.13,11.1,1.15,12.14,0,.45,0,.9,0,.9s0,1,0,1.95S52.43,30,51.53,36.59l5.5.34,3.28-12.72.38-1.47L60.5,22,57.15,9.07Z"/>
        <path class="l" d="M60.31,22l-7.5.17v1.95l7.33.1a2,2,0,0,0,.45-1.47A1.66,1.66,0,0,0,60.31,22Z"/>
        <line class="h" x1="64.2" y1="39.54" x2="63.57" y2="36.04"/>
        <polyline class="m" points="67.48 27.73 71.58 23.06 67.48 18.45 67.65 18.48 63.56 23.09 67.65 27.75"/>
        <line class="h" x1="69.91" y1="38.38" x2="68.94" y2="35.3"/>
        <line class="h" x1="70.28" y1="7.41" x2="69.54" y2="10.3"/>
    </g>
    <path class="n" d="M51.71,9.12a65.51,65.51,0,0,1,1.35,14.42,65.33,65.33,0,0,1-1.53,13.05"/>
</svg>
