<svg xmlns="http://www.w3.org/2000/svg" viewBox="0 0 45 180" width="45" height="180">
    <g xmlns="http://www.w3.org/2000/svg" transform="matrix(0 -1 1 0 -0 180)">
        <defs>
            <style>.a { fill: #ed6637; stroke: #ed4a18; stroke-width: 2px; } .a, .b, .d, .e, .f, .h, .i, .j, .l {
                stroke-miterlimit: 10; } .b, .e { fill: #fff; } .b, .d, .e, .f, .i, .j { stroke: #ff7756; } .c { fill:
                #a0310e; } .d { fill: #fff8fc; } .d, .e, .j { stroke-width: 0.75px; } .f, .j { fill: #b9eafc; } .f, .i {
                stroke-width: 0.5px; } .g { fill: #bd0101; } .h { fill: none; stroke: #000; } .i { fill: #b5e9fc; } .k {
                fill: #6d8191; } .l { fill: #41433d; stroke: #2f302e; stroke-width: 0.25px; } .m { fill: #ed4a18; }
            </style>
        </defs>
        <g>
            <path class="a"
                  d="M170.81,22.67c0-4-5.31-6.89-11.85-10.4a80.79,80.79,0,0,0-18.19-7.06L37.05,5l-26.2,5.21,0,24.26L37,39.79,140.71,40a60.34,60.34,0,0,0,22.72-9.07C170.4,26.27,170.82,23.8,170.81,22.67Z"/>
            <rect class="b" x="38.62" y="8.84" width="101.23" height="27.22"/>
            <polygon class="c" points="35.4 8.84 35.4 36.05 21.31 33.63 21.31 11.91 35.4 8.84"/>
            <rect class="d" x="14.27" y="11.91" width="4.23" height="8.34"/>
            <rect class="e" x="14.27" y="24.96" width="4.23" height="8.34"/>
            <rect class="f" x="23.73" y="14.98" width="9.46" height="15.36"/>
            <ellipse class="g" cx="28.36" cy="22.66" rx="3.62" ry="3.95"/>
            <line class="h" x1="43.45" y1="14.98" x2="47.28" y2="14.98"/>
            <line class="h" x1="53.51" y1="14.98" x2="60.56" y2="14.98"/>
            <line class="h" x1="67" y1="14.98" x2="73.24" y2="14.98"/>
            <line class="h" x1="80.08" y1="14.98" x2="86.92" y2="14.98"/>
            <line class="h" x1="93.16" y1="14.98" x2="100.21" y2="14.98"/>
            <line class="h" x1="106.44" y1="14.98" x2="113.29" y2="14.98"/>
            <line class="h" x1="119.73" y1="14.98" x2="126.37" y2="14.98"/>
            <line class="h" x1="132.81" y1="14.98" x2="136.03" y2="14.98"/>
            <line class="h" x1="43.23" y1="30.34" x2="47.06" y2="30.34"/>
            <line class="h" x1="53.29" y1="30.34" x2="60.34" y2="30.34"/>
            <line class="h" x1="66.78" y1="30.34" x2="73.02" y2="30.34"/>
            <line class="h" x1="79.86" y1="30.34" x2="86.7" y2="30.34"/>
            <line class="h" x1="92.94" y1="30.34" x2="99.99" y2="30.34"/>
            <line class="h" x1="106.22" y1="30.34" x2="113.07" y2="30.34"/>
            <line class="h" x1="119.51" y1="30.34" x2="126.15" y2="30.34"/>
            <line class="h" x1="132.59" y1="30.34" x2="135.81" y2="30.34"/>
            <rect class="c" x="142.57" y="14.1" width="4.93" height="16.23"/>
            <ellipse class="i" cx="159.78" cy="23.08" rx="2.55" ry="2.78"/>
            <polyline class="j" points="147.5 18.71 152.93 18.71 152.93 26.61 147.5 26.61"/>
            <polyline class="k" points="146.89 21.83 155.1 21.83 155.1 23.03 147.33 23.32"/>
            <ellipse class="l" cx="145.56" cy="22.5" rx="2.4" ry="2.62"/>
            <path class="m"
                  d="M166.86,21.84c-.38-1.83-2.1-3.22-5.12-5.71-.83-.69-1.89-1.42-4-2.88-2.84-2-4.64-3-5.28-3.42-1.2-.72-2.2-1.26-2.83-1.6,1.67.57,3.41,1.23,5.2,2a91.15,91.15,0,0,1,8.28,4c.5.21,7.68,3.3,7.68,8.14,0,2.68-2.19,4.57-5.53,7.36-5.94,5-12.87,7.35-13.1,7s2.11-1.14,5.58-3.73C162.48,29.41,167.63,25.58,166.86,21.84Z"/>
        </g>
    </g>
</svg>