<svg xmlns="http://www.w3.org/2000/svg" viewBox="0 0 45 45" width="45" height="45">
    <g xmlns="http://www.w3.org/2000/svg" transform="matrix(0 -1 1 0 -0 45)">
        <defs>
            <style>.a { fill: #007042; stroke: #114f02; stroke-width: 0.5px; } .a, .e, .g { stroke-miterlimit: 10; } .b
                { fill: #aae5b2; } .c { fill: #afbbbc; } .d { fill: #ff0102; } .e { fill: none; stroke: #aea39c;
                stroke-width: 2px; } .f { fill: #ceeadb; } .g, .h { fill: #ccd1d1; } .g { stroke: #000; } .i { fill:
                #ff2545; } .j { fill: #ff030a; }
            </style>
        </defs>
        <path class="a"
              d="M6.39,13.13a3.11,3.11,0,0,1-2.34-1.5,5.87,5.87,0,0,1-.88-2.52,6.63,6.63,0,0,1,.48-1.73A4.85,4.85,0,0,1,5.26,5.32H29.71a46.49,46.49,0,0,1,9.12,7.81c.83.91,1.61,1.83,2.34,2.75V29.75c-.73.92-1.51,1.84-2.34,2.75a46.93,46.93,0,0,1-9.12,7.82H5.26a4.9,4.9,0,0,1-1.61-2.07,6.63,6.63,0,0,1-.48-1.73A5.87,5.87,0,0,1,4.05,34a3.11,3.11,0,0,1,2.34-1.5Z"/>
        <path class="b"
              d="M7,35.11l21.11-.5a31.65,31.65,0,0,0,4.17-5.16A39.19,39.19,0,0,0,35.68,23v-.13a56.9,56.9,0,0,0-3.37-6.43A50.33,50.33,0,0,0,28,10.37H6.89a3.83,3.83,0,0,0,.48,2.41,1.78,1.78,0,0,0,1.12.81l.08,18a1.94,1.94,0,0,0-1.28,1.15A3.93,3.93,0,0,0,7,35.11Z"/>
        <polygon class="c" points="27.62 12.55 27.62 32.43 10.48 32.43 10.19 12.55 27.62 12.55"/>
        <path class="d" d="M15.51,11c-.08,1,0,24.09,0,24.09H12V10.2h3.55Z"/>
        <path class="d" d="M26.2,11c-.09,1,0,24.09,0,24.09H22.65V10.2H26.2Z"/>
        <line class="e" x1="16.56" y1="12.55" x2="16.56" y2="32.43"/>
        <line class="e" x1="21.18" y1="12.55" x2="21.18" y2="32.43"/>
        <polygon class="f" points="27.62 12.55 35.68 22.89 27.62 32.43 27.62 12.55"/>
        <line class="g" x1="8.33" y1="8.42" x2="14.86" y2="8.42"/>
        <line class="g" x1="18.82" y1="8.42" x2="25.27" y2="8.42"/>
        <line class="g" x1="29.35" y1="9.91" x2="33.06" y2="15.19"/>
        <line class="g" x1="9.5" y1="37.06" x2="16.04" y2="37.06"/>
        <line class="g" x1="19.99" y1="37.06" x2="26.45" y2="37.06"/>
        <line class="g" x1="30.58" y1="35.07" x2="34.29" y2="29.78"/>
        <g>
            <path class="h"
                  d="M33.6,17.38c-3.29,0-6,3.8-6,8.5s2.67,8.49,6,8.49,6-3.8,6-8.49S36.9,17.38,33.6,17.38Zm0,12.8c-1.66,0-3-1.93-3-4.3s1.36-4.32,3-4.32,3,1.93,3,4.32S35.28,30.18,33.6,30.18Z"/>
            <path class="i"
                  d="M32.22,22.05,30.9,18.3a7.55,7.55,0,0,0-2.37,3.12,12,12,0,0,0-.89,5.28h2.94a6.34,6.34,0,0,1,.4-2.95A3.92,3.92,0,0,1,32.22,22.05Z"/>
            <path class="i"
                  d="M36.3,18.3l-1.56,3.35a4.27,4.27,0,0,1,1.44,2,7,7,0,0,1,.32,3.54l3-.45a11.54,11.54,0,0,0-.61-4.65A7.56,7.56,0,0,0,36.3,18.3Z"/>
            <path class="i"
                  d="M36.3,33.45l-.78-4.24a2.38,2.38,0,0,1-3.83,0l-1.11,4a4.81,4.81,0,0,0,3,1.18A4.61,4.61,0,0,0,36.3,33.45Z"/>
        </g>
        <path class="j" d="M8.65,32.43a6.37,6.37,0,0,0-.8.91,8.56,8.56,0,0,0-1,1.77l1.55,0,1.77-2.64Z"/>
        <path class="j" d="M8.65,12.59a6.37,6.37,0,0,1-.8-.91,8.56,8.56,0,0,1-1-1.77l1.55,0,1.77,2.64Z"/>
    </g>
</svg>