<svg xmlns="http://www.w3.org/2000/svg" width="135" height="45" viewBox="0 0 135 45">
    <defs>
        <style>
            .a {
            fill: #d7f9f0;
            }

            .b {
            fill: #1446a8;
            }

            .c {
            fill: #eaf4f4;
            }

            .d, .i {
            fill: #f48003;
            }

            .d {
            stroke: #ff6700;
            stroke-miterlimit: 10;
            }

            .e {
            fill: #018aba;
            }

            .f {
            fill: #bfecfd;
            }

            .g {
            fill: #e4eaf7;
            }

            .h {
            fill: #454446;
            }
        </style>
    </defs>
    <g>
        <path class="a"
              d="M128.33,22.6h0s-7.82-5.9-9.16-6.89C114.82,12.5,107.5,8.54,94.51,5.37c-5.05-.19-12.69-.38-22-.19-11.06.24-17.94.88-28.89,1.58C35.61,7.27,24.12,7.9,10,8.3c-.1.4-.19.81-.28,1.22A62.66,62.66,0,0,0,10,36.9c14.14.4,25.63,1,33.64,1.54,11,.7,17.83,1.34,28.89,1.58,9.31.19,16.95,0,22-.19a81.21,81.21,0,0,0,24.66-10.34C120.59,28.59,128.33,22.6,128.33,22.6Z"/>
        <path class="b"
              d="M123.61,22.6a77.91,77.91,0,0,0-11.69-7.51,85.31,85.31,0,0,0-22.87-8C85.84,7,81,7,75.1,7.13c-13.61.34-21.68,1.35-33.7,2.25-6.78.51-16.52,1.11-28.45,1.39a36.49,36.49,0,0,0,0,23.66c11.93.28,21.67.88,28.45,1.39,12,.9,20.09,1.92,33.7,2.25,5.89.15,10.74.12,14,.06a85,85,0,0,0,22.87-8,77.91,77.91,0,0,0,11.69-7.51"/>
        <path class="c"
              d="M25.1,34.85a17.81,17.81,0,0,1-6-4.58,14.93,14.93,0,0,1-3.4-7.67,14.87,14.87,0,0,1,3.4-7.66,17.54,17.54,0,0,1,6-4.58c1.73-.14,4.16-.32,7.09-.49,4.54-.25,4.56-.14,7.34-.37s4.07-.44,7.28-.62c1.27-.07,1.91-.08,2.39-.13,1.17-.13,2.75-.33,5.12-.53,2-.17,3-.2,5-.33,3.38-.23,5.46-.5,6.93-.59,5.47-.34,10-.32,13-.25,1.56.11,10.54.89,16.07,7.58a17,17,0,0,1,3.66,8,17,17,0,0,1-3.66,8C89.81,37.26,80.83,38,79.27,38.15c-3.27.1-8.21.16-14.22-.19-1.64-.09-3.15-.2-4.53-.32l-1.22-.11c-3-.29-5.66-.65-7.23-.83-2.18-.26-4-.37-7.57-.59-4.27-.26-3.93-.12-6.94-.34-3.31-.25-4.35-.46-7.86-.7C27.72,34.94,26.11,34.88,25.1,34.85Z"/>
        <ellipse class="d" cx="109.19" cy="22.6" rx="3.17" ry="2.8"/>
        <path class="e"
              d="M34.68,14l24.09-.58c.75.12,6,1,8.38,5.09a8.26,8.26,0,0,1,0,8.34c-2.41,4.09-7.63,5-8.38,5.09H34.55A7.87,7.87,0,0,1,31.76,31c-4.08-2.35-3.66-7.71-3.63-8.09a9.31,9.31,0,0,1,2-5.9A10.21,10.21,0,0,1,34.68,14Z"/>
        <ellipse class="f" cx="46.27" cy="21.04" rx="7.74" ry="5.18"/>
        <path class="g"
              d="M37.61,15.49a10.19,10.19,0,0,0-3.32,7.36,10.52,10.52,0,0,0,4.24,7.91,7.83,7.83,0,0,1-3.14-.46c-2.94-1.1-4.81-4.06-5-7.57-.07-3.19,1.54-5.92,4.11-6.9A6.68,6.68,0,0,1,37.61,15.49Z"/>
        <path class="g"
              d="M44.48,28.07c1.63.09,3.43.13,5.38.06,1.71-.06,3.3-.2,4.74-.37l1.55-3.34c1.67-1.53,2.42-1.34,2.62-1.27,1.31.48.5,4.14.39,4.63a3.13,3.13,0,0,1-3.14,3c-1.13,0-3,.05-5.23.18-4.83.25-6.52.45-7.08-.41C43.49,30.22,43.38,29.54,44.48,28.07Z"/>
        <path class="h" d="M77.36,19.8v6.42H83a11.47,11.47,0,0,0,.44-4A12.15,12.15,0,0,0,83,19.8Z"/>
        <path class="h" d="M76.05,15.18l2.88-1.75a10.07,10.07,0,0,1,1.67,1.21,8.86,8.86,0,0,1,2.52,4l-5.56.44Z"/>
        <polygon class="h" points="73.56 11 75.52 9.38 78.07 11.93 75.81 13.43 73.56 11"/>
        <polygon class="h" points="69.15 7.99 74.08 8.57 72.51 10.36 69.15 7.99"/>
        <path class="h" d="M76.05,30.21l2.88,1.51a7.3,7.3,0,0,0,1.67-1,6.34,6.34,0,0,0,2.12-3.47l-5.16-.34Z"/>
        <polygon class="h" points="73.56 34.15 75.52 35.77 78.07 33.22 75.81 31.71 73.56 34.15"/>
        <polyline class="h" points="72.51 34.79 69.15 37.15 74.08 36.58"/>
        <polygon class="h" points="56.54 9.38 52.74 9.17 52.74 11.41 55.1 11.41 56.54 9.38"/>
        <polygon class="h" points="51.45 9.38 43.32 9.84 44.5 11.41 51.45 11.41 51.45 9.38"/>
        <polygon class="h" points="43.32 11.41 42.66 10.29 37.3 10.39 39.39 11.93 43.32 11.93 43.32 11.41"/>
        <polygon class="h" points="56.75 35.96 52.95 36.17 52.95 33.94 55.31 33.94 56.75 35.96"/>
        <polygon class="h" points="51.66 35.96 43.53 35.5 44.71 33.94 51.66 33.94 51.66 35.96"/>
        <polygon class="h" points="43.53 33.94 42.87 35.05 37.51 34.95 39.6 33.41 43.53 33.41 43.53 33.94"/>
        <path class="i" d="M97.35,27.71,82.07,29.52a17.76,17.76,0,0,0,0-13.66l15.28,1.63a9,9,0,0,1,0,10.22Z"/>
    </g>
</svg>
