<svg xmlns="http://www.w3.org/2000/svg" width="850" height="300" viewBox="0 0 850 300">
    <defs>
        <style>
            .a {
            fill: #fff;
            }

            .b {
            fill: #e6e6e6;
            stroke: #8e1703;
            stroke-width: 7px;
            }

            .aa, .ab, .ac, .ad, .b, .d, .e, .f, .g, .h, .i, .j, .l, .m, .n, .q, .r, .t, .u, .v, .w, .x, .y, .z {
            stroke-miterlimit: 10;
            }

            .c {
            fill: #175654;
            }

            .d {
            fill: #908c8d;
            }

            .aa, .ab, .ac, .ad, .d, .e, .f, .g, .h, .i, .j, .l, .m, .n, .q, .r, .t, .u, .v, .w, .x, .y, .z {
            stroke: #000;
            }

            .d, .h {
            stroke-width: 3px;
            }

            .e {
            fill: #99a494;
            }

            .e, .f, .i, .m, .y {
            stroke-width: 2px;
            }

            .f {
            fill: #6d6d61;
            }

            .g, .q, .w, .y {
            fill: none;
            }

            .h {
            fill: #d2ccc4;
            }

            .i, .k {
            fill: #231f20;
            }

            .j {
            fill: #d8d2cd;
            }

            .j, .w {
            stroke-width: 0.75px;
            }

            .l {
            fill: #4d4d4d;
            }

            .m, .n {
            fill: #cfccc2;
            }

            .n, .q, .r {
            stroke-width: 4px;
            }

            .o {
            fill: #e6e6e5;
            }

            .p {
            fill: #272424;
            }

            .r {
            fill: #d1ccc6;
            }

            .s {
            fill: #e6e3e3;
            }

            .t {
            fill: #1f1c1b;
            }

            .u {
            fill: #a8a5a5;
            }

            .v {
            fill: #898986;
            }

            .x {
            fill: #d1cdc5;
            }

            .z {
            fill: #d3d1c9;
            }

            .aa {
            fill: #6f6c64;
            }

            .ab {
            fill: #322e2e;
            }

            .ac {
            fill: #faf7f8;
            stroke-width: 0.5px;
            }

            .ad {
            fill: #18949b;
            }

            .ae {
            fill: #8e1703;
            }

            .af {
            fill: #346450;
            }
        </style>
    </defs>
    <g>
        <g>
            <path d="M453.87,130.21l8.89-40.52-23.95,40.52h-9.1l-6.16-40.52-8.9,40.52H394.24L409.09,62.8h27.49l4.65,32.34,19-32.34h28.91l-14.86,67.41Z"/>
            <path d="M486.61,108.69c0-15,11.92-28.5,29.2-28.5s26.08,10.1,26.08,22.74c0,14.95-11.93,28.5-29.21,28.5S486.61,121.32,486.61,108.69Zm36.68-4.85c0-4.85-3.13-7.58-8.18-7.58-6.07,0-9.91,5.45-9.91,11.52,0,4.85,3.14,7.58,8.19,7.58C519.45,115.36,523.29,109.9,523.29,103.84Z"/>
            <path d="M562.4,125.06l-5.25,23.75H539L553.91,81.4h18.2l-1.22,5.15c4.25-4.64,8.19-6.36,13.24-6.36,10.92,0,18.19,7.17,18.19,20.31,0,13.54-8.38,30.93-25.77,30.93C571,131.43,565.54,129.41,562.4,125.06Zm21.13-20.72a7.92,7.92,0,0,0-8.09-8.08,10.25,10.25,0,0,0-7.38,3.33L565.23,112a10.8,10.8,0,0,0,8.09,3.34C579.08,115.36,583.53,110.61,583.53,104.34Z"/>
            <path d="M605.15,108.79c0-16.07,12.84-28.6,29.41-28.6,11.12,0,18.09,4.65,21.43,10.1L642.44,100.7a9.18,9.18,0,0,0-8.08-4.44c-6.27,0-10.81,4.75-10.81,11.32,0,4.75,4.14,7.78,9,7.78a11,11,0,0,0,8.19-3.94l9.7,12c-3.24,3.54-10.21,8-19.71,8C614.75,131.43,605.15,121.72,605.15,108.79Z"/>
            <path d="M684.59,130.21l-5.16-16.06-4.85,5-2.42,11H654L664.78,81.4H683l-3.74,16.37L693.58,81.4h22.54l-21.73,22.23,12,26.58Z"/>
            <path d="M712.07,108.69c0-15,11.93-28.5,29.21-28.5s26.08,10.1,26.08,22.74c0,14.95-11.93,28.5-29.21,28.5S712.07,121.32,712.07,108.69Zm36.69-4.85c0-4.85-3.13-7.58-8.18-7.58-6.07,0-9.91,5.45-9.91,11.52,0,4.85,3.13,7.58,8.19,7.58C744.92,115.36,748.76,109.9,748.76,103.84Z"/>
            <path d="M768.57,130.21,779.28,81.4h18.19l-4.85,21.73L812.13,81.4h18.39l-10.71,48.81H801.62l5-23.14L786,130.21Zm37.29-52.95c-7.18,0-12.94-3.44-15.87-8.9l8.69-6.26a9.33,9.33,0,0,0,8.9,5.35c4.24,0,8.08-1.92,11.32-5.35l6.57,6.26C820.21,73.82,813.14,77.26,805.86,77.26Z"/>
            <path d="M602.83,184.08l-3.94,17.79H563.11L562,207.22h11.72c15.87,0,23.65,8.59,23.65,19.1,0,9.4-6.47,25.17-29.81,25.17H531.88l14.76-67.41ZM558.06,225l-1.92,8.69h13.24c4.14,0,6.87-2,6.87-5,0-2.43-1.62-3.64-4.14-3.64Z"/>
            <path d="M600.2,230c0-15,11.92-28.5,29.21-28.5s26.07,10.11,26.07,22.74c0,15-11.92,28.5-29.21,28.5S600.2,242.6,600.2,230Zm36.68-4.85c0-4.85-3.13-7.58-8.18-7.58-6.06,0-9.91,5.46-9.91,11.52,0,4.85,3.14,7.58,8.19,7.58C633.05,236.63,636.88,231.17,636.88,225.11Z"/>
            <path d="M656.69,251.49l10.72-48.82H685.6l-4.85,21.73,19.5-21.73h18.4l-10.72,48.82H689.74l5-23.15-20.71,23.15Zm37.3-53c-7.18,0-12.94-3.44-15.87-8.89l8.69-6.27a9.33,9.33,0,0,0,8.89,5.36c4.25,0,8.09-1.92,11.32-5.36l6.57,6.27C708.34,195.09,701.26,198.53,694,198.53Z"/>
        </g>
        <g>
            <path class="a"
                  d="M445.51,130.21l8.89-40.52-23.95,40.52h-9.1l-6.16-40.52-8.9,40.52H385.88L400.74,62.8h27.49l4.65,32.34,19-32.34h28.9l-14.86,67.41Z"/>
            <path class="a"
                  d="M478.25,108.69c0-15,11.93-28.5,29.21-28.5s26.07,10.1,26.07,22.74c0,14.95-11.92,28.5-29.21,28.5S478.25,121.32,478.25,108.69Zm36.69-4.85c0-4.85-3.14-7.58-8.19-7.58-6.06,0-9.9,5.45-9.9,11.52,0,4.85,3.13,7.58,8.18,7.58C511.1,115.36,514.94,109.9,514.94,103.84Z"/>
            <path class="a"
                  d="M554.05,125.06l-5.26,23.75H530.6l15-67.41h18.19l-1.21,5.15c4.24-4.64,8.18-6.36,13.23-6.36,10.92,0,18.2,7.17,18.2,20.31,0,13.54-8.39,30.93-25.77,30.93C562.64,131.43,557.18,129.41,554.05,125.06Zm21.12-20.72a7.92,7.92,0,0,0-8.09-8.08,10.21,10.21,0,0,0-7.37,3.33L556.88,112a10.77,10.77,0,0,0,8.08,3.34C570.72,115.36,575.17,110.61,575.17,104.34Z"/>
            <path class="a"
                  d="M596.79,108.79c0-16.07,12.84-28.6,29.41-28.6,11.12,0,18.09,4.65,21.43,10.1L634.09,100.7A9.21,9.21,0,0,0,626,96.26c-6.26,0-10.81,4.75-10.81,11.32,0,4.75,4.14,7.78,9,7.78a11,11,0,0,0,8.19-3.94l9.7,12c-3.23,3.54-10.21,8-19.71,8C606.4,131.43,596.79,121.72,596.79,108.79Z"/>
            <path class="a"
                  d="M676.23,130.21l-5.15-16.06-4.86,5-2.42,11H645.61L656.42,81.4h18.19l-3.74,16.37L685.22,81.4h22.54L686,103.63l12,26.58Z"/>
            <path class="a"
                  d="M703.72,108.69c0-15,11.92-28.5,29.2-28.5S759,90.29,759,102.93c0,14.95-11.93,28.5-29.21,28.5S703.72,121.32,703.72,108.69Zm36.68-4.85c0-4.85-3.13-7.58-8.18-7.58-6.07,0-9.91,5.45-9.91,11.52,0,4.85,3.14,7.58,8.19,7.58C736.56,115.36,740.4,109.9,740.4,103.84Z"/>
            <path class="a"
                  d="M760.21,130.21,770.92,81.4h18.19l-4.85,21.73L803.77,81.4h18.39l-10.71,48.81H793.26l5-23.14-20.72,23.14ZM797.5,77.26c-7.17,0-12.93-3.44-15.87-8.9l8.7-6.26a9.31,9.31,0,0,0,8.89,5.35c4.25,0,8.09-1.92,11.32-5.35l6.57,6.26C811.85,73.82,804.78,77.26,797.5,77.26Z"/>
            <path class="a"
                  d="M594.47,184.08l-3.94,17.79H554.75l-1.11,5.35h11.73c15.86,0,23.65,8.59,23.65,19.1,0,9.4-6.47,25.17-29.82,25.17H523.52l14.76-67.41ZM549.7,225l-1.92,8.69H561c4.14,0,6.87-2,6.87-5,0-2.43-1.61-3.64-4.14-3.64Z"/>
            <path class="a"
                  d="M591.84,230c0-15,11.93-28.5,29.21-28.5s26.07,10.11,26.07,22.74c0,15-11.92,28.5-29.2,28.5S591.84,242.6,591.84,230Zm36.69-4.85c0-4.85-3.14-7.58-8.19-7.58-6.06,0-9.9,5.46-9.9,11.52,0,4.85,3.13,7.58,8.18,7.58C624.69,236.63,628.53,231.17,628.53,225.11Z"/>
            <path class="a"
                  d="M648.34,251.49l10.71-48.82h18.19l-4.85,21.73,19.5-21.73h18.4l-10.71,48.82h-18.2l5.06-23.15-20.72,23.15Zm37.29-53c-7.18,0-12.94-3.44-15.87-8.89l8.69-6.27a9.34,9.34,0,0,0,8.9,5.36c4.24,0,8.08-1.92,11.32-5.36l6.57,6.27C700,195.09,692.9,198.53,685.63,198.53Z"/>
        </g>
    </g>
    <g>
        <path class="b"
              d="M323.53,150.49A143.73,143.73,0,0,1,179.8,294.22c-190.65-7.57-190.6-279.91,0-287.46A143.73,143.73,0,0,1,323.53,150.49Z"/>
        <path class="c"
              d="M198.75,289.47c-32.23,4.24-52.39-.13-74.06-8a76.62,76.62,0,0,1-8.66-1s-2.93-.5-5.58-1.16c-4.24-1.06-27.56-18.36-25.32-21.56.44-.63,1.46-.13,1.79-.77.88-1.67-5.65-6.08-14.55-15.06a39.89,39.89,0,0,1-10.22-15.57l220.6,14.83c-8.9,16.89-23.49,27.68-40.09,34.95A152.77,152.77,0,0,1,198.75,289.47Z"/>
        <path class="d"
              d="M293.13,219.06l4.77-11.72-56.77-52.93-3.95,5.87c-16.37-13-44.56-25-64-28.06-10.7-9.82-18.37-16.67-49.28-24.28-9.21-2-6.09-.55-21.71-3.42C81.42,100.69,71,98.78,64.14,96c-1.34-.56-8.65-2.34-23.26-5.88-1.16-.29-4.21-1-4.77,0,.36,2.88,2,25.91,3.92,69.1,21,17.27,47.57,49.05,60.44,71.36"/>
        <path class="e"
              d="M299.6,227.43c-29-41.61-82.06-74-124.6-83.24-1.13-6.76-3.75-10.64-5.61-12.76-.7-.79-1.49-1.55-3.07-3.07-3.42-3.28-6.65-6-8.17-7.15-2.68-2-6.1-3.95-14.29-6.63-8.66-2.84-16.14-4.43-29.45-6.81-28.55-5.07-34.8-5.11-76.91-17.3l29.25,41c13.63,27.5,28.11,65.66,36.25,96l175.66,26Z"/>
        <path class="f" d="M232.88,132.22l7.32-15.69c-21.66-25.73-57.78-40-92.26-31.4-4.21,6-6.59,16.36-5.45,23.54Z"/>
        <line class="g" x1="205.87" y1="90.67" x2="193.05" y2="121.47"/>
        <line class="g" x1="225.93" y1="102.89" x2="215.52" y2="128.29"/>
        <line class="g" x1="182.36" y1="83.7" x2="171.26" y2="115.59"/>
        <path class="h" d="M258,167.43l13.79-35.21c-4.22-5.49-12.91-9.73-20.17-9.47l-14.55,33.7Z"/>
        <path class="i"
              d="M37.5,90.47c34.3,39.09,46.83,77.56,65.5,137v10.21C90.86,213.7,63.56,178.24,41.05,159Q39.28,124.74,37.5,90.47Z"/>
        <path class="j"
              d="M115.26,132.45v6.21c-1.42,2.93-6.79,7.81-9.79,8.93H94.75c-4.68-1.72-9.51-7.2-10.64-12a29.06,29.06,0,0,1,8-.25,6.07,6.07,0,0,0,.68,4.92l5.67-.09-.9-10.84c-5.69-1.21-4.91-9.61,1-9.69,5.21.23,6.17,6,3.11,9.19h0c.26,3.64.51,7.29.77,10.93h2.81c1.13-.48,4.41-3.26,3.32-6.55C111,132.06,113,133.47,115.26,132.45Z"/>
        <path class="k" d="M185.22,156.45c-.21,6.75-10,6.75-10.22,0C175.21,149.7,185,149.7,185.22,156.45Z"/>
        <path class="k" d="M199,161.09c1.05,6.67-8.57,8.49-10,1.9C187.93,156.32,197.56,154.5,199,161.09Z"/>
        <path class="k" d="M212.18,168.49c1,6.67-8.58,8.49-10,1.9C201.09,163.71,210.72,161.89,212.18,168.49Z"/>
        <path class="k" d="M225.34,174.89c1,6.67-8.58,8.49-10,1.89C214.26,170.11,223.88,168.29,225.34,174.89Z"/>
        <path class="k" d="M238.13,181.16c1.05,6.67-8.57,8.49-10,1.9C227.05,176.39,236.68,174.57,238.13,181.16Z"/>
        <polygon class="l" points="292.63 236.1 291.18 236.03 104.53 227.5 103 227.43 278.66 253.47 292.63 236.1"/>
        <line class="g" x1="158.92" y1="236.1" x2="170.88" y2="230.53"/>
        <line class="g" x1="181.19" y1="239.43" x2="197.82" y2="231.76"/>
        <line class="g" x1="205.9" y1="242.75" x2="223.27" y2="232.93"/>
        <line class="g" x1="229.13" y1="246.58" x2="245.24" y2="233.93"/>
        <line class="g" x1="251.09" y1="248.62" x2="265.14" y2="234.84"/>
        <line class="g" x1="268.2" y1="252.45" x2="283.27" y2="235.67"/>
        <path class="m"
              d="M235.52,156.45l7.14-14c-17.43-19.75-41.21-30.85-60.25-34.79-21.8-4.9-27.66-2.63-35.24,4.34a110.87,110.87,0,0,1,26.05,17.87C191.4,134,219.19,145.66,235.52,156.45Z"/>
        <line class="g" x1="209.88" y1="117.34" x2="201.86" y2="139.24"/>
        <line class="g" x1="160.42" y1="105.34" x2="156.79" y2="117.34"/>
        <g>
            <path class="n"
                  d="M185.22,117.34,103,9.13C91.13-1.45,73,9.89,77.22,25.2l101.61,96.27A4.22,4.22,0,0,0,185.22,117.34Z"/>
            <path class="o"
                  d="M94.13,7.27c-11.85-2.55-22,17.74-10,22s22.31-19.35,10-22m-2,4c7.56,2.36.43,16.53-6.67,12.67S85.67,9.25,92.13,11.27Z"/>
            <path class="p"
                  d="M93.22,11.87c-6.46-2-13.77,8.81-6.67,12.67s14.23-10.31,6.67-12.67m1,9c-2.61-1-6.55-2.92-7-6C91.56,11.93,97.41,15.94,94.22,20.87Z"/>
            <path class="q" d="M83.38,31a17,17,0,0,0,16.56-5.57c6-7.1,3.22-15.87,3.06-16.34"/>
        </g>
        <path class="r"
              d="M147.17,109.72c.66-1.55-3.83-4.81-5.61-6.12C124.39,91,109.88,75.1,93.3,61.72a366.57,366.57,0,0,1-36-33.35c-7.37-6.82-17.94-5.83-22.47-.09-4.39,5.57-2.42,14.78,2.05,18.64,3.35,2.89,6.09,1,13.78,4.85a79.09,79.09,0,0,1,8.68,5.61c17.9,12.71,27.53,21.15,61,48C131.6,108.59,146.08,112.3,147.17,109.72Z"/>
        <path class="s"
              d="M49.68,25.06c-13.56-3.65-21.59,15.42-9.27,20.56S61.75,28.3,49.68,25.06m-2.25,3.38c7.46,2.15,2.55,16.25-5.27,13.17S39.65,26.21,47.43,28.44Z"/>
        <path class="q" d="M39.37,48.36c10.66,1.25,20.8-7.56,17.93-20"/>
        <path class="p"
              d="M47.89,28.57c-6.46-2-13.77,8.81-6.67,12.67s14.23-10.31,6.67-12.67m1,9c-2.61-1-6.55-2.92-7-6C46.23,28.63,52.08,32.64,48.89,37.57Z"/>
        <path class="t"
              d="M266.24,142.53a33.7,33.7,0,0,0-8.35-6.74,32.19,32.19,0,0,0-9.38-3.57l-2.7,6.58a80,80,0,0,1,17.6,11.35Z"/>
        <path class="g" d="M324.25,25.47,283.09,50.14q-24.69,41-49.36,82.08"/>
        <polyline class="g" points="324.25 25.47 291.91 51.6 239 136.7"/>
        <path class="g" d="M299.91,76.73q-17.6,24-35.2,47.89"/>
        <path class="g" d="M309.71,67.37a818.39,818.39,0,0,1-18.28,132.14"/>
        <path class="g"
              d="M324.62,27.26c4.4,8.15,8.19,22.49,8.56,30.87-.3,3.14-.83,8.14-1.75,14.23a267.87,267.87,0,0,1-7.15,33c-4.7,17-14.2,52.81-27.06,100.43"/>
        <path class="g"
              d="M324.25,25.47q10,17.46,20,34.92c0,2.38-.21,6-.69,10.27a114.2,114.2,0,0,1-3.58,18.21c-4.21,15.19-7.28,30.66-11.06,46-8,32.34-5.85,30.09-9.88,43.24a214.35,214.35,0,0,1-21.07,47.12"/>
        <path class="u"
              d="M273.35,183.13,309.71,67.37l34.15-2.45a2.35,2.35,0,0,0,.35-4.53L318,55c2-9.79,3.81-17.7,5.2-23.38.93-3.86,1.49-6,1-6.17-1.22-.53-8.54,13.23-16.36,28.78l-24.8-4.11c-8.56,1,2.07,4.44,10.52,9.25A121.55,121.55,0,0,1,304,65.82q-20.4,54.48-40.78,109Z"/>
        <path class="v"
              d="M168.54,81.09l2.72-6.85c19.27-1,41.08,7.12,54.67,19.4-.58,2.34-1.16,4.67-1.73,7C209.75,88.86,186.41,80.92,168.54,81.09Z"/>
        <line class="w" x1="181.19" y1="74.55" x2="180.11" y2="82.67"/>
        <line class="w" x1="191.22" y1="76.14" x2="188.83" y2="83.7"/>
        <line class="w" x1="201.1" y1="79.03" x2="199.17" y2="86.83"/>
        <line class="w" x1="210.04" y1="82.93" x2="208.15" y2="90.67"/>
        <line class="w" x1="218.4" y1="87.87" x2="215.74" y2="94.83"/>
        <path class="x"
              d="M225.93,92.45,230.58,78c-14.31-16.9-37.16-21.42-51.66-19.42-3.89,2.54-8.23,9-7.66,15.66C187.62,73.66,210.77,80.26,225.93,92.45Z"/>
        <g>
            <path class="m"
                  d="M183,63.68,145.67,29.12c-4.34-3.28-14.46-.76-12.41,5.7l44.81,33.63A6.94,6.94,0,0,0,183,63.68Z"/>
            <path class="o"
                  d="M141.39,28.45c-5.7-.9-10.59,6.3-4.81,7.81s10.74-6.87,4.81-7.81m-1,1.42c3.64.84.21,5.87-3.21,4.5S137.32,29.16,140.43,29.87Z"/>
            <path class="p"
                  d="M141,30.09c-3.11-.72-6.63,3.12-3.21,4.49s6.85-3.66,3.21-4.49m.48,3.19c-1.26-.37-3.15-1-3.37-2.13C140.16,30.11,143,31.53,141.44,33.28Z"/>
            <path class="y" d="M137.05,38c3.59-.28,10.76-3.45,8.62-8.86"/>
        </g>
        <g>
            <path class="m"
                  d="M204.22,65.76c-1.82-2.64-20.36-29.53-28.53-38-.89-.92-3-3-5.79-3.07-3.64-.13-8.33,3-8,6.47.25,2.7,3.32,4.31,3.77,4.54q16.61,17.17,33.2,34.36a7.11,7.11,0,0,0,3.21-1.43A7,7,0,0,0,204.22,65.76Z"/>
            <path class="o"
                  d="M171.24,25.9c-6.49-1.64-12.89,6.17-6.37,8.51S178,27.6,171.24,25.9M170,27.44c4.12,1.34-.37,6.79-4.17,4.86S166.47,26.29,170,27.44Z"/>
            <path class="p"
                  d="M170.66,27.08c-3.74-1.23-8.5,3.11-4.44,5.17s8.82-3.74,4.44-5.17m.24,4c-1.5-.59-3.76-1.62-3.91-3C169.68,27,173,29.08,170.9,31.06Z"/>
            <path class="y" d="M164.56,35.79c4.21.81,12-2.32,10.36-8.77"/>
        </g>
        <path class="z"
              d="M225.71,73.1q2.06-4.29,4.1-8.57C221,56.7,206.47,51.17,194.92,51.09q3.24,4.52,6.49,9a57.46,57.46,0,0,1,24.3,13Z"/>
        <line class="w" x1="208.15" y1="53" x2="204.22" y2="60.92"/>
        <line class="w" x1="220.09" y1="58.21" x2="216.03" y2="66.07"/>
        <path class="aa"
              d="M229.81,64.53l3.92-8.68C226.56,46,212.62,39.65,200.14,41l-5.22,10.05C206.91,50.4,221.36,56,229.81,64.53Z"/>
        <line class="w" x1="209.88" y1="42.07" x2="205.87" y2="52.7"/>
        <line class="w" x1="222.03" y1="45.72" x2="217.07" y2="55.79"/>
        <path class="ab"
              d="M220.25,44.27l13.48-5.16c-.24-2.43-3.21-7.58-5.47-9.15l2.64-6.48c-.71-1.1-1.41-2.2-2.11-3.3l1.33-3.28c-.32-3.39-3.8-3.89-5.31-1.91l-1.14,3.47-4.08.86-3.13,7.57-8.31.86q2.73,7,5.47,14Z"/>
        <polygon class="ac" points="216.03 39.34 219.55 32.04 212.37 30.8 216.03 39.34"/>
        <polygon class="ac" points="220.72 41.44 229.81 37.3 223.51 33.28 220.72 41.44"/>
        <path class="ad"
              d="M76.9,225.55c-.85,0-6.05.16-3.11,2,4.89-.55,9.63,3.77,11.43,8-5.06,1.87-11.37-3.63-16.63-1a10.27,10.27,0,0,0,1,2c1.26,1.29,3.66,2.06,4.16,4,7.5-4.38,14.7,4.65,22.86,5-6.34,2.59-13-3.67-19.75-4,.22,2.64,2.63,4.3,4.16,6,25.58,0,52.5,2.37,77.95,0,7.34-.68,11.2-1.59,17.66,1a157.3,157.3,0,0,0,17.67,2c.36,0,.77.76,1,1a118.23,118.23,0,0,0,33.26,2c2.51-.23,6.14-1,9.35-1,2.25-.21,12.51-3.47,13.51,1h21.83c-1.26-1.16-1.32-3.43,1-3,1.66-.69,4.67.21,6.23-1a19.1,19.1,0,0,0,1-2c-30.94-5.15-62-22-94.57-12-.25-2.77,3.27-3.65,4.15-6a62.64,62.64,0,0,0-18.7,2c-.18-3.55,4.3-3.08,1-5-2.5-.82-8.83-.47-11.44,0-13.07,2.6-4.14,14.14,5.2,12-12.26,5.49-27-7.62-10.39-15,2.62-2.41,6.87-1.23,9.35-3-7.06-2.12-16.72-1.39-23.82,1.08s-10.88,9.19-2.16,11.92c-16.57,1-8.14-20.42,2.08-23-16-4.16-35.88,5.47-40.53,21-7.27-4.76-12.11-17.42-23.91-15,2,3.78,7.5,5.73,8.32,10a60,60,0,0,1-9.36-1m44.69,12c2.09,2.79,6,4,9.36,5-6.08,1.1-12.74-2.08-18.71-1,3.59-.14,6-3.46,9.35-4m103.93,13c-8.12,4.66-15.51-6.5-22.86-2,.84-2,3.39-3,4.15-5C212.49,247.08,218.42,250.21,225.52,250.55Z"/>
        <path class="ae"
              d="M293,238.23l9.89-11-2.36-1.82a8.75,8.75,0,0,1-2.23,2.35l2.05,2.05a11.23,11.23,0,0,1,1.63-2.56c1.24-1.45-.8-3.56-2.12-2.13-8.58,9.26-13.43,21.87-23.79,29.46l1.82,2.36q1.81-1.95,3.75-3.78l-2.36-1.81a8.45,8.45,0,0,1-3.92,3l1.69,2.21a58,58,0,0,1,8.4-9c2.91-2.55,5.83-5.07,7.93-8.35,1.06-1.67-1.47-3-2.59-1.52l-3.45,4.62,2.75.36c-.29-1.29,2-3,2.78-3.84,1.3-1.43,2.57-2.89,3.79-4.38q3.6-4.35,6.76-9l-2.59-1.51c-2.64,4.7-6.5,8.63-10,12.66l-11.48,13.12c-1.26,1.45.85,3.58,2.12,2.12l11.8-13.48c3.59-4.11,7.49-8.13,10.18-12.91a1.5,1.5,0,0,0-2.59-1.51,111.3,111.3,0,0,1-7.78,10.18c-1.34,1.57-2.78,3-4.15,4.58-1.23,1.38-2.13,2.88-1.71,4.79.31,1.38,2,1.3,2.75.36l3.44-4.62-2.59-1.52c-2.11,3.29-5.19,5.73-8.08,8.3a58.72,58.72,0,0,0-8.25,9,1.51,1.51,0,0,0,1.69,2.2,11.85,11.85,0,0,0,5.72-4.36c1-1.43-1.16-2.95-2.35-1.82s-2.54,2.48-3.76,3.78.39,3.4,1.82,2.35c10.67-7.81,15.6-20.43,24.4-29.92l-2.12-2.13a14,14,0,0,0-2.1,3.18c-.57,1.21.72,3,2.06,2.05a13.09,13.09,0,0,0,3.3-3.42,1.5,1.5,0,0,0-2.35-1.82l-9.89,11c-1.29,1.44.83,3.57,2.12,2.12Z"/>
        <g>
            <path class="af" d="M298.68,228.58a15.82,15.82,0,0,1,2.82-3.34"/>
            <path class="ae"
                  d="M300,229.33c.27-.43.57-.85.88-1.25l-.23.3a15.81,15.81,0,0,1,1.93-2.08,1.5,1.5,0,0,0-2.12-2.12,17.45,17.45,0,0,0-3.05,3.64,1.51,1.51,0,0,0,.54,2.05,1.53,1.53,0,0,0,2.05-.54Z"/>
        </g>
        <path class="ad"
              d="M272.54,254.2c.83.59,5.92,4.72,2.71,4.07-4.72-4.27-10.15-3.23-12.67-.3,4.65,4.39,11.83,3.78,16.54,10.57a4.29,4.29,0,0,1-1.38.88c-1.46.08-4-1.05-4.8.32-6.6-9.39-15.29-5.08-23.38-7.59,5.77,4.68,13.39,2,20.14,6.31-.68,2.21-3.35,2.15-5.16,2.83-25.17-15.13-52.09-11.71-76.71-10.53-7.11.32-10.74,0-17.56,3.73a129.67,129.67,0,0,1-17.74,4.61c-.36.07-.9.88-1.21,1.16-10.22,3.45-22.89,4.93-33.08,2.72-2.43-.5-5.87-1.77-9-2.43-2.17-.47-11.7-6.54-13.47-2.86a93.41,93.41,0,0,1-21.48-11.57c1.44-.17,1.91-2.13-.49-3.4-1.51-1.77-4.64-3.3-6-5.66-.39-.91-.37-1.75-.67-2.59,31.36,21.75,64.94,2.56,95.21,8,.73-2.92-2.58-3.32-3-5.65,6.37-1.09,12.5-1.61,18.05-.78.81-3.73-3.68-2.54-.13-5.06,2.6-1.25,8.77-1.84,11.25-1.69,12.4,1.06,1.57,14-7.24,13.26,11.09,3.74,27.9-11.1,12.89-17-2.15-2.2-6.55-.41-8.68-1.89,7.32-3.26,16.71-3.58,23.25-1.32s9.08,9.1,0,12.11c16.13.8,11.63-20.84,2-23.45,16.49-5.34,34.34,9.26,36.16,26,8-2,15-12,26.19-1.53-2.58,1.83-8.39.13-10,3.67,3.24,1.78,6.21,3.29,9.39,5m-46.11-5.33c-2.55,2.58-6.66,3.6-10.09,4.58,5.78,1.13,12.89-1.52,18.58.66-3.51-.76-5.26-4.36-8.49-5.24M121.84,270.26c7.16,5.34,16.41-6.32,22.86-2.36-.47-2-2.82-2.78-3.21-4.82C135.28,267.09,128.89,270.43,121.84,270.26Z"/>
        <path class="ad"
              d="M85.14,257.11c-1,0-8.34-.43-3.84,2.63,6.65-.24,15,6.26,18.62,11.8-7.08,2.75-17.46-5.25-26-1.67a16.2,16.2,0,0,0,1.83,3.06c2.16,2,6.15,3.06,6.82,5.87,12.83-6.34,21.9,5.71,30.23,5-10,4.16-14-3.53-25.46-3.75-.09,3.78,2.7,5.94,3.36,8.18,33.69-2.74,58.7-3.5,86.67-9.45,7.67-1.65,11.9-3.1,14.89-1.06a81.91,81.91,0,0,0,13.52.15c.31,0-.3.8-.44,1.07,5.93,1.45,18.23.81,29.65-1.67,2.72-.58,6.63-1.82,9.63-2.15,2.4-.58,12.22-4.37,12.65-.48,7.07-.78,14.14-1.5,21.34-2.13-1.26-.63-1.59-2,.8-1.86,1.6-.45,4.73-.09,6.29-.74.49-.29.6-.7,1-1-31.47-2.9-76.61-12.56-88.74-3.59-3.27-1.95-2-2.77-4-4.43-5,.23-9,.9-11.19,2.56-4.65-2.73-.76-2.57-5.47-4a21.07,21.07,0,0,0-8.57.43c-5.38,3,13.14,12.18,17.53,9.4-3.86,2.91-8.79,2-14.79-.82-5.6-2.76-12.26-7.37-10.22-11.26-.36-2.48,4.09-1.31,4.75-3.15-6.87-2.3-14.9-1.73-18.26,1.14s2.4,10.07,12.41,12c-5.06.68-15.29-3.41-19.77-10.08-4.83-6.38-3.91-15.36,5.06-17.79-5-4.7-18.44-2-23.93,3.67-6.42,5.72-4.89,14.35-1.51,23.39-12.93-5-26-24.57-36.32-22.72,3.1,6.11,10.64,9.69,14.12,15.66a73,73,0,0,1-12.58-2.28m60.07,15.27c3.06,2.75,6.52,3.68,9.53,4.35-6.65,1.84-12.49-1-19.92.73,4.53-.52,7.37-4.33,10.39-5.08m88.7,2c-9.81,5.72-10.57-5.11-19,.34,1.74-2.18,3.71-3.27,3.64-5C224.36,272.07,227.61,274.79,233.91,274.4Z"/>
    </g>
</svg>
