<svg xmlns="http://www.w3.org/2000/svg" width="315.92" height="294.72" viewBox="0 0 315.92 294.72">
    <defs>
        <style>
            .a {
            fill: #e6e6e6;
            stroke: #8e1703;
            stroke-width: 7px;
            }

            .a, .aa, .ab, .ac, .c, .d, .e, .f, .g, .h, .i, .k, .l, .m, .p, .q, .s, .t, .u, .v, .w, .x, .y, .z {
            stroke-miterlimit: 10;
            }

            .b {
            fill: #175654;
            }

            .c {
            fill: #908c8d;
            }

            .aa, .ab, .ac, .c, .d, .e, .f, .g, .h, .i, .k, .l, .m, .p, .q, .s, .t, .u, .v, .w, .x, .y, .z {
            stroke: #000;
            }

            .c, .g {
            stroke-width: 3px;
            }

            .d {
            fill: #99a494;
            }

            .d, .e, .h, .l, .x {
            stroke-width: 2px;
            }

            .e {
            fill: #6d6d61;
            }

            .f, .p, .v, .x {
            fill: none;
            }

            .g {
            fill: #d2ccc4;
            }

            .h, .j {
            fill: #231f20;
            }

            .i {
            fill: #d8d2cd;
            }

            .i, .v {
            stroke-width: 0.75px;
            }

            .k {
            fill: #4d4d4d;
            }

            .l, .m {
            fill: #cfccc2;
            }

            .m, .p, .q {
            stroke-width: 4px;
            }

            .n {
            fill: #e6e6e5;
            }

            .o {
            fill: #272424;
            }

            .q {
            fill: #d1ccc6;
            }

            .r {
            fill: #e6e3e3;
            }

            .s {
            fill: #1f1c1b;
            }

            .t {
            fill: #a8a5a5;
            }

            .u {
            fill: #898986;
            }

            .w {
            fill: #d1cdc5;
            }

            .y {
            fill: #d3d1c9;
            }

            .z {
            fill: #6f6c64;
            }

            .aa {
            fill: #322e2e;
            }

            .ab {
            fill: #faf7f8;
            stroke-width: 0.5px;
            }

            .ac {
            fill: #18949b;
            }

            .ad {
            fill: #8e1703;
            }

            .ae {
            fill: #346450;
            }
        </style>
    </defs>
    <g>
        <path class="a"
              d="M537.44,262.53A143.73,143.73,0,0,1,393.71,406.26c-190.65-7.57-190.6-279.91,0-287.45A143.72,143.72,0,0,1,537.44,262.53Z"
              transform="translate(-244.28 -115.04)"/>
        <path class="b"
              d="M412.66,401.51c-32.23,4.24-52.39-.13-74.06-7.95a76.62,76.62,0,0,1-8.66-1s-2.93-.49-5.58-1.16c-4.24-1.06-27.56-18.36-25.32-21.56.44-.63,1.46-.13,1.79-.76.88-1.68-5.65-6.09-14.55-15.07a39.89,39.89,0,0,1-10.22-15.57l220.6,14.83c-8.9,16.89-23.48,27.68-40.09,35A152.77,152.77,0,0,1,412.66,401.51Z"
              transform="translate(-244.28 -115.04)"/>
        <path class="c"
              d="M507,331.1l4.77-11.72L455,266.45l-4,5.87c-16.37-13-44.56-25-64-28.06-10.7-9.82-18.37-16.67-49.28-24.28-9.21-2-6.09-.55-21.71-3.42-20.81-3.82-31.22-5.74-38.08-8.57-1.35-.56-8.66-2.33-23.27-5.88-1.16-.28-4.21-1-4.77,0,.36,2.89,2,25.91,3.92,69.1,21,17.27,47.57,49.05,60.44,71.36"
              transform="translate(-244.28 -115.04)"/>
        <path class="d"
              d="M513.51,339.47c-29-41.61-82.06-74-124.6-83.24-1.13-6.76-3.75-10.64-5.61-12.76-.7-.79-1.49-1.55-3.07-3.07-3.42-3.28-6.65-6-8.17-7.14-2.68-2.06-6.1-4-14.29-6.64-8.66-2.84-16.14-4.42-29.45-6.81-28.55-5.07-34.8-5.11-76.91-17.3l29.25,41c13.63,27.5,28.11,65.67,36.25,96l175.66,26Z"
              transform="translate(-244.28 -115.04)"/>
        <path class="e" d="M446.79,244.26l7.32-15.69c-21.66-25.73-57.78-40-92.26-31.4-4.21,6-6.59,16.36-5.45,23.55Z"
              transform="translate(-244.28 -115.04)"/>
        <line class="f" x1="175.5" y1="87.67" x2="162.68" y2="118.47"/>
        <line class="f" x1="195.56" y1="99.89" x2="185.15" y2="125.29"/>
        <line class="f" x1="151.99" y1="80.7" x2="140.89" y2="112.59"/>
        <path class="g" d="M471.89,279.47l13.79-35.21c-4.22-5.49-12.91-9.73-20.17-9.47L451,268.49Z"
              transform="translate(-244.28 -115.04)"/>
        <path class="h"
              d="M251.41,202.51c34.3,39.09,46.83,77.57,65.5,137v10.21c-12.14-23.94-39.44-59.4-62-78.64Q253.19,236.78,251.41,202.51Z"
              transform="translate(-244.28 -115.04)"/>
        <path class="i"
              d="M329.17,244.49v6.21c-1.42,2.93-6.79,7.81-9.79,8.93H308.66c-4.68-1.72-9.51-7.2-10.64-12a29.06,29.06,0,0,1,8-.25,6.07,6.07,0,0,0,.68,4.92l5.67-.09-.9-10.84c-5.69-1.21-4.91-9.6,1-9.69,5.21.23,6.17,6,3.11,9.19h0c.26,3.64.51,7.29.77,10.93h2.81c1.13-.48,4.41-3.26,3.32-6.55C324.89,244.1,327,245.51,329.17,244.49Z"
              transform="translate(-244.28 -115.04)"/>
        <path class="j" d="M399.13,268.49c-.21,6.75-10,6.75-10.22,0C389.12,261.74,398.92,261.74,399.13,268.49Z"
              transform="translate(-244.28 -115.04)"/>
        <path class="j" d="M412.92,273.13c1.05,6.67-8.57,8.49-10,1.9C401.84,268.36,411.47,266.54,412.92,273.13Z"
              transform="translate(-244.28 -115.04)"/>
        <path class="j" d="M426.09,280.53c1.05,6.67-8.58,8.49-10,1.9C415,275.76,424.63,273.94,426.09,280.53Z"
              transform="translate(-244.28 -115.04)"/>
        <path class="j" d="M439.25,286.93c1.05,6.67-8.58,8.49-10,1.9C428.17,282.16,437.79,280.34,439.25,286.93Z"
              transform="translate(-244.28 -115.04)"/>
        <path class="j" d="M452.05,293.2c1.05,6.67-8.58,8.49-10,1.9C441,288.43,450.59,286.61,452.05,293.2Z"
              transform="translate(-244.28 -115.04)"/>
        <polygon class="k" points="262.26 233.1 260.81 233.03 74.17 224.5 72.64 224.43 248.3 250.47 262.26 233.1"/>
        <line class="f" x1="128.55" y1="233.1" x2="140.51" y2="227.53"/>
        <line class="f" x1="150.82" y1="236.43" x2="167.45" y2="228.76"/>
        <line class="f" x1="175.53" y1="239.75" x2="192.9" y2="229.93"/>
        <line class="f" x1="198.76" y1="243.58" x2="214.87" y2="230.93"/>
        <line class="f" x1="220.72" y1="245.62" x2="234.78" y2="231.84"/>
        <line class="f" x1="237.83" y1="249.45" x2="252.9" y2="232.67"/>
        <path class="l"
              d="M449.43,268.49l7.14-14c-17.43-19.75-41.21-30.85-60.25-34.79-21.8-4.9-27.66-2.63-35.23,4.34a110.77,110.77,0,0,1,26,17.88C405.31,246,433.1,257.7,449.43,268.49Z"
              transform="translate(-244.28 -115.04)"/>
        <line class="f" x1="179.51" y1="114.34" x2="171.49" y2="136.24"/>
        <line class="f" x1="130.05" y1="102.34" x2="126.42" y2="114.34"/>
        <g>
            <path class="m"
                  d="M399.13,229.38,316.91,121.17c-11.87-10.58-30.05.76-25.78,16.07l101.61,96.27A4.22,4.22,0,0,0,399.13,229.38Z"
                  transform="translate(-244.28 -115.04)"/>
            <path class="n"
                  d="M308,119.31c-11.85-2.55-22,17.74-10,22s22.31-19.35,10-22m-2,4c7.56,2.36.43,16.53-6.67,12.67S299.58,121.29,306,123.31Z"
                  transform="translate(-244.28 -115.04)"/>
            <path class="o"
                  d="M307.13,123.91c-6.46-2-13.77,8.81-6.67,12.67s14.23-10.31,6.67-12.67m1,9c-2.61-1-6.55-2.92-7-6C305.47,124,311.32,128,308.13,132.91Z"
                  transform="translate(-244.28 -115.04)"/>
            <path class="p" d="M297.29,143.09a17,17,0,0,0,16.56-5.58c6-7.1,3.22-15.87,3.06-16.34"
                  transform="translate(-244.28 -115.04)"/>
        </g>
        <path class="q"
              d="M361.09,221.77c.65-1.56-3.84-4.82-5.62-6.13-17.17-12.61-31.68-28.5-48.26-41.87a368.18,368.18,0,0,1-36-33.36c-7.37-6.82-17.94-5.83-22.47-.09-4.39,5.57-2.42,14.78,2,18.64,3.36,2.89,6.09,1,13.78,4.85a80.48,80.48,0,0,1,8.69,5.62c17.89,12.7,27.52,21.15,61,47.95C345.51,220.63,360,224.34,361.09,221.77Z"
              transform="translate(-244.28 -115.04)"/>
        <path class="r"
              d="M263.59,137.1c-13.56-3.65-21.59,15.42-9.27,20.56s21.34-17.32,9.27-20.56m-2.25,3.38c7.46,2.15,2.55,16.25-5.27,13.17S253.56,138.25,261.34,140.48Z"
              transform="translate(-244.28 -115.04)"/>
        <path class="p" d="M253.28,160.4c10.66,1.25,20.8-7.56,17.93-20" transform="translate(-244.28 -115.04)"/>
        <path class="q" d="M270.45,141.82" transform="translate(-244.28 -115.04)"/>
        <path class="o"
              d="M261.8,140.61c-6.46-2-13.77,8.81-6.67,12.67s14.23-10.31,6.67-12.67m1,9c-2.61-1-6.55-2.92-7-6C260.14,140.67,266,144.68,262.8,149.61Z"
              transform="translate(-244.28 -115.04)"/>
        <path class="s"
              d="M480.15,254.57a33.93,33.93,0,0,0-8.35-6.74,32.19,32.19,0,0,0-9.38-3.57l-2.7,6.58a80,80,0,0,1,17.6,11.35Z"
              transform="translate(-244.28 -115.04)"/>
        <path class="f" d="M538.17,137.51,497,162.18q-24.69,41-49.36,82.08" transform="translate(-244.28 -115.04)"/>
        <polyline class="f" points="293.89 22.47 261.54 48.6 208.64 133.7"/>
        <path class="f" d="M513.82,188.78l-35.2,47.88" transform="translate(-244.28 -115.04)"/>
        <path class="f" d="M523.62,179.41c-2.06,42-9.29,93.07-18.28,132.14" transform="translate(-244.28 -115.04)"/>
        <path class="f"
              d="M538.53,139.3c4.4,8.15,8.19,22.49,8.56,30.87-.3,3.14-.83,8.14-1.75,14.23a268.63,268.63,0,0,1-7.15,33c-4.7,17-14.2,52.8-27.06,100.42"
              transform="translate(-244.28 -115.04)"/>
        <path class="f"
              d="M538.17,137.51l20,34.92c0,2.38-.21,6-.69,10.27a114.2,114.2,0,0,1-3.58,18.21c-4.21,15.19-7.28,30.67-11.06,46-8,32.34-5.85,30.09-9.88,43.24a214.35,214.35,0,0,1-21.07,47.12"
              transform="translate(-244.28 -115.04)"/>
        <path class="t"
              d="M487.26,295.17l36.36-115.76L557.78,177a2.35,2.35,0,0,0,.34-4.53l-26.19-5.37c2-9.79,3.81-17.7,5.2-23.38.93-3.86,1.49-6,1-6.17-1.23-.53-8.54,13.23-16.37,28.78L497,162.18c-8.56,1,2.07,4.45,10.52,9.25a121.55,121.55,0,0,1,10.39,6.43q-20.4,54.48-40.78,109Z"
              transform="translate(-244.28 -115.04)"/>
        <path class="u"
              d="M382.45,193.13l2.72-6.85c19.27-1,41.08,7.12,54.67,19.4-.58,2.34-1.16,4.67-1.73,7C423.66,200.9,400.32,193,382.45,193.13Z"
              transform="translate(-244.28 -115.04)"/>
        <line class="v" x1="150.82" y1="71.55" x2="149.74" y2="79.67"/>
        <line class="v" x1="160.85" y1="73.14" x2="158.46" y2="80.7"/>
        <line class="v" x1="170.73" y1="76.03" x2="168.81" y2="83.83"/>
        <line class="v" x1="179.67" y1="79.93" x2="177.78" y2="87.67"/>
        <line class="v" x1="188.03" y1="84.87" x2="185.37" y2="91.83"/>
        <path class="w"
              d="M439.84,204.49,444.49,190c-14.31-16.89-37.16-21.41-51.66-19.42-3.89,2.54-8.23,9-7.66,15.66C401.53,185.7,424.68,192.3,439.84,204.49Z"
              transform="translate(-244.28 -115.04)"/>
        <g>
            <path class="l"
                  d="M396.91,175.72l-37.33-34.56c-4.34-3.28-14.46-.76-12.41,5.7L392,180.49a6.94,6.94,0,0,0,4.93-4.77Z"
                  transform="translate(-244.28 -115.04)"/>
            <path class="n"
                  d="M355.31,140.5c-5.71-.91-10.6,6.29-4.82,7.8s10.74-6.86,4.82-7.8m-1,1.41c3.64.84.21,5.87-3.21,4.5S351.24,141.2,354.34,141.91Z"
                  transform="translate(-244.28 -115.04)"/>
            <path class="o"
                  d="M354.87,142.13c-3.11-.72-6.62,3.12-3.21,4.49s6.85-3.65,3.21-4.49m.48,3.19c-1.25-.37-3.15-1-3.37-2.13C354.07,142.15,356.89,143.57,355.35,145.32Z"
                  transform="translate(-244.28 -115.04)"/>
            <path class="x" d="M351,150c3.59-.28,10.76-3.44,8.62-8.86" transform="translate(-244.28 -115.04)"/>
        </g>
        <g>
            <path class="l"
                  d="M418.13,177.8c-1.82-2.64-20.36-29.53-28.53-38-.89-.92-3-3-5.79-3.07-3.64-.12-8.33,3-8,6.47.25,2.7,3.32,4.31,3.77,4.54l33.21,34.36a7,7,0,0,0,5.34-4.31Z"
                  transform="translate(-244.28 -115.04)"/>
            <path class="n"
                  d="M385.15,137.94c-6.49-1.64-12.89,6.17-6.37,8.51s13.12-6.81,6.37-8.51m-1.26,1.54c4.12,1.34-.37,6.79-4.17,4.86S380.38,138.33,383.89,139.48Z"
                  transform="translate(-244.28 -115.04)"/>
            <path class="o"
                  d="M384.57,139.12c-3.74-1.23-8.49,3.11-4.44,5.17s8.82-3.74,4.44-5.17m.24,4c-1.5-.59-3.76-1.62-3.91-3C383.59,139.06,386.89,141.12,384.81,143.1Z"
                  transform="translate(-244.28 -115.04)"/>
            <path class="x" d="M378.47,147.83c4.21.81,12-2.32,10.36-8.77" transform="translate(-244.28 -115.04)"/>
            <path class="o" d="M387,138.79" transform="translate(-244.28 -115.04)"/>
        </g>
        <path class="y"
              d="M439.62,185.14q2.06-4.29,4.1-8.57c-8.79-7.83-23.34-13.36-34.89-13.44q3.24,4.51,6.49,9a57.46,57.46,0,0,1,24.3,13Z"
              transform="translate(-244.28 -115.04)"/>
        <line class="v" x1="177.78" y1="50" x2="173.85" y2="57.92"/>
        <line class="v" x1="189.72" y1="55.21" x2="185.66" y2="63.07"/>
        <path class="z"
              d="M443.72,176.57l3.92-8.68c-7.17-9.86-21.11-16.2-33.59-14.8l-5.22,10C420.82,162.44,435.27,168,443.72,176.57Z"
              transform="translate(-244.28 -115.04)"/>
        <line class="v" x1="179.51" y1="39.07" x2="175.5" y2="49.7"/>
        <line class="v" x1="191.66" y1="42.72" x2="186.7" y2="52.79"/>
        <path class="aa"
              d="M434.16,156.31l13.48-5.16c-.24-2.42-3.21-7.58-5.47-9.15l2.64-6.48c-.71-1.1-1.41-2.2-2.11-3.3l1.33-3.28c-.32-3.39-3.8-3.88-5.31-1.91l-1.14,3.47-4.08.86-3.13,7.57-8.31.86q2.73,7,5.47,14Z"
              transform="translate(-244.28 -115.04)"/>
        <polygon class="ab" points="185.66 36.34 189.18 29.04 182 27.8 185.66 36.34"/>
        <polygon class="ab" points="190.35 38.44 199.44 34.3 193.15 30.28 190.35 38.44"/>
        <path class="ac"
              d="M290.81,337.59c-.85,0-6.05.16-3.11,2,4.89-.55,9.63,3.77,11.43,8-5.06,1.87-11.37-3.63-16.63-1a10.27,10.27,0,0,0,1,2c1.26,1.29,3.66,2.06,4.16,4,7.5-4.38,14.7,4.65,22.86,5-6.34,2.59-12.95-3.67-19.75-4,.22,2.64,2.63,4.3,4.16,6,25.58,0,52.51,2.37,77.95,0,7.34-.68,11.2-1.59,17.66,1a157.57,157.57,0,0,0,17.67,2c.36,0,.77.76,1,1a118.23,118.23,0,0,0,33.26,2c2.51-.23,6.14-1,9.35-1,2.25-.21,12.52-3.47,13.51,1h21.83c-1.26-1.16-1.32-3.43,1-3,1.66-.69,4.67.21,6.23-1a19.1,19.1,0,0,0,1-2c-30.94-5.15-62-22-94.57-12-.25-2.77,3.27-3.65,4.15-6a62.64,62.64,0,0,0-18.7,2c-.18-3.55,4.3-3.08,1-5-2.5-.82-8.83-.47-11.44,0-13.07,2.6-4.14,14.14,5.2,12-12.26,5.49-27-7.62-10.39-15,2.62-2.41,6.87-1.23,9.35-3-7.06-2.12-16.72-1.39-23.82,1.08s-10.88,9.19-2.16,11.92c-16.57,1-8.14-20.42,2.08-23-16-4.16-35.88,5.47-40.53,21-7.27-4.76-12.11-17.42-23.91-15,1.95,3.78,7.5,5.73,8.32,10a60,60,0,0,1-9.36-1m44.69,12c2.09,2.79,6,4,9.36,5-6.08,1.1-12.74-2.08-18.71-1,3.59-.14,6-3.46,9.35-4m103.93,13c-8.12,4.66-15.51-6.5-22.86-2,.84-2,3.4-3,4.15-5C426.4,359.12,432.33,362.25,439.43,362.59Z"
              transform="translate(-244.28 -115.04)"/>
        <path class="c" d="M292.91,210.45" transform="translate(-244.28 -115.04)"/>
        <path class="ad"
              d="M506.94,350.27l9.89-11-2.36-1.81a8.86,8.86,0,0,1-2.23,2.34l2,2.05a11.23,11.23,0,0,1,1.63-2.56c1.24-1.45-.8-3.56-2.12-2.12-8.58,9.25-13.43,21.86-23.79,29.45l1.82,2.36c1.21-1.3,2.46-2.55,3.75-3.77l-2.36-1.82a8.38,8.38,0,0,1-3.92,3l1.69,2.21a58,58,0,0,1,8.4-9c2.91-2.55,5.83-5.07,7.93-8.35,1.06-1.67-1.47-3-2.59-1.52l-3.44,4.62,2.74.36c-.29-1.29,2-3,2.78-3.84q1.95-2.14,3.8-4.38,3.58-4.35,6.75-9l-2.59-1.51c-2.64,4.7-6.5,8.63-10,12.67l-11.48,13.11c-1.26,1.45.85,3.58,2.12,2.12l11.8-13.48c3.6-4.11,7.49-8.12,10.18-12.91a1.5,1.5,0,0,0-2.59-1.51A112.83,112.83,0,0,1,507,346.13c-1.34,1.56-2.78,3-4.15,4.57s-2.13,2.88-1.71,4.79c.31,1.38,2,1.31,2.75.36l3.44-4.62-2.59-1.52c-2.11,3.29-5.19,5.73-8.08,8.3a58.72,58.72,0,0,0-8.25,9,1.52,1.52,0,0,0,1.69,2.21,11.93,11.93,0,0,0,5.72-4.37c1-1.42-1.16-2.95-2.35-1.82s-2.54,2.48-3.76,3.78.39,3.4,1.82,2.35c10.67-7.81,15.6-20.42,24.4-29.92l-2.12-2.12a14,14,0,0,0-2.1,3.17c-.57,1.21.72,3,2.06,2.05a12.94,12.94,0,0,0,3.3-3.42,1.5,1.5,0,0,0-2.35-1.82l-9.89,11c-1.29,1.44.83,3.57,2.12,2.12Z"
              transform="translate(-244.28 -115.04)"/>
        <g>
            <path class="ae" d="M512.59,340.62a15.82,15.82,0,0,1,2.82-3.34" transform="translate(-244.28 -115.04)"/>
            <path class="ad"
                  d="M513.89,341.38a14.15,14.15,0,0,1,.88-1.26l-.23.3a15.81,15.81,0,0,1,1.93-2.08,1.5,1.5,0,1,0-2.12-2.12,17.45,17.45,0,0,0-3.05,3.64,1.51,1.51,0,0,0,.54,2.05,1.54,1.54,0,0,0,2.05-.53Z"
                  transform="translate(-244.28 -115.04)"/>
        </g>
        <path class="ac"
              d="M486.45,366.24c.83.59,5.92,4.72,2.71,4.08-4.72-4.28-10.15-3.24-12.67-.31,4.65,4.4,11.83,3.78,16.54,10.57-.16.31-1.08.74-1.37.88-1.47.08-4-1-4.81.32-6.6-9.39-15.29-5.07-23.38-7.59,5.78,4.68,13.39,2,20.14,6.32-.68,2.2-3.35,2.14-5.16,2.82-25.17-15.13-52.09-11.7-76.71-10.53-7.11.32-10.74,0-17.56,3.73a129.67,129.67,0,0,1-17.74,4.61c-.36.07-.9.89-1.2,1.17-10.23,3.44-22.9,4.92-33.09,2.71-2.43-.49-5.87-1.77-9-2.43-2.17-.47-11.7-6.54-13.47-2.86a93,93,0,0,1-21.48-11.57c1.44-.17,1.91-2.13-.49-3.4-1.51-1.77-4.64-3.3-6-5.65-.39-.92-.37-1.76-.67-2.6,31.36,21.75,64.94,2.56,95.21,8,.73-2.92-2.58-3.32-3-5.65,6.37-1.09,12.5-1.61,18-.78.81-3.73-3.68-2.54-.13-5.06,2.6-1.25,8.77-1.84,11.25-1.69,12.41,1.06,1.57,14.06-7.24,13.26,11.09,3.74,27.9-11.1,12.89-17-2.15-2.2-6.55-.41-8.68-1.88,7.32-3.26,16.71-3.59,23.25-1.33s9.08,9.1,0,12.11c16.13.8,11.63-20.84,2-23.45,16.49-5.34,34.34,9.26,36.17,26,8-2,15-12,26.18-1.53-2.58,1.83-8.39.14-10,3.67,3.24,1.78,6.21,3.3,9.39,5.05m-46.11-5.32c-2.55,2.57-6.66,3.59-10.09,4.57,5.78,1.13,12.89-1.51,18.58.67-3.51-.77-5.26-4.37-8.49-5.24M335.75,382.3c7.16,5.34,16.41-6.31,22.86-2.36-.47-2-2.82-2.78-3.21-4.82C349.19,379.14,342.8,382.48,335.75,382.3Z"
              transform="translate(-244.28 -115.04)"/>
        <path class="ac"
              d="M299.05,369.15c-1,0-8.34-.43-3.84,2.63,6.65-.24,15,6.26,18.62,11.8-7.08,2.75-17.46-5.25-26.05-1.67a15.89,15.89,0,0,0,1.83,3.06c2.16,2,6.15,3.06,6.82,5.87,12.83-6.34,21.9,5.71,30.23,5-10,4.16-14-3.53-25.46-3.75-.09,3.78,2.7,5.94,3.36,8.18,33.69-2.74,58.7-3.5,86.67-9.45,7.67-1.65,11.9-3.1,14.89-1.06a81.91,81.91,0,0,0,13.52.15c.32,0-.3.8-.44,1.07,5.93,1.45,18.23.81,29.65-1.67,2.72-.58,6.64-1.82,9.63-2.15,2.4-.58,12.22-4.37,12.65-.48,7.07-.78,14.14-1.5,21.34-2.13-1.26-.63-1.59-2,.8-1.86,1.6-.45,4.73-.09,6.29-.73.49-.3.6-.71,1-1-31.47-2.91-76.61-12.57-88.74-3.6-3.27-1.95-2-2.77-4-4.43-5,.23-9,.91-11.19,2.56-4.65-2.72-.76-2.57-5.47-4a20.87,20.87,0,0,0-8.57.44c-5.38,3,13.14,12.17,17.54,9.39-3.87,2.91-8.8,2-14.8-.82-5.6-2.76-12.26-7.37-10.22-11.26-.36-2.48,4.09-1.31,4.75-3.15-6.87-2.3-14.9-1.73-18.26,1.14s2.4,10.07,12.41,12c-5.06.68-15.29-3.4-19.77-10.08-4.83-6.38-3.9-15.36,5.06-17.79-5-4.7-18.44-2-23.93,3.67-6.42,5.72-4.89,14.35-1.51,23.39-12.93-5-26-24.57-36.32-22.72,3.1,6.11,10.64,9.69,14.12,15.66a73,73,0,0,1-12.58-2.28m60.07,15.27c3.06,2.75,6.52,3.68,9.53,4.35-6.65,1.85-12.49-1-19.92.73,4.53-.52,7.37-4.33,10.39-5.08m88.7,2c-9.81,5.73-10.57-5.11-19,.34,1.74-2.18,3.71-3.27,3.64-5C438.28,384.12,441.52,386.83,447.82,386.44Z"
              transform="translate(-244.28 -115.04)"/>
    </g>
</svg>
